<mxfile host="app.diagrams.net" modified="2021-02-03T16:52:42.779Z" agent="5.0 (Macintosh; Intel Mac OS X 11_1_0) AppleWebKit/537.36 (KHTML, like Gecko) Chrome/87.0.4280.141 Safari/537.36" etag="an9wrc8TnEtPNhLN4HV-" version="14.2.9" type="github">
  <diagram id="P7GycEMNmJ9JlGjv8IgR" name="第 1 页">
    <mxGraphModel dx="1228" dy="1835" grid="1" gridSize="10" guides="1" tooltips="1" connect="1" arrows="1" fold="1" page="1" pageScale="1" pageWidth="827" pageHeight="1169" math="0" shadow="0">
      <root>
        <mxCell id="0" />
        <mxCell id="1" parent="0" />
        <mxCell id="PVO-l5OE1TBbHevKNnlY-11" value="" style="edgeStyle=orthogonalEdgeStyle;rounded=0;orthogonalLoop=1;jettySize=auto;html=1;" edge="1" parent="1" source="PVO-l5OE1TBbHevKNnlY-1" target="PVO-l5OE1TBbHevKNnlY-4">
          <mxGeometry relative="1" as="geometry" />
        </mxCell>
        <mxCell id="PVO-l5OE1TBbHevKNnlY-1" value="PlatON" style="verticalLabelPosition=bottom;verticalAlign=top;html=1;shape=mxgraph.basic.polygon;polyCoords=[[0.25,0],[0.75,0],[1,0.25],[1,0.75],[0.75,1],[0.25,1],[0,0.75],[0,0.25]];polyline=0;fillColor=#fff2cc;strokeColor=#d6b656;" vertex="1" parent="1">
          <mxGeometry x="120" y="350" width="100" height="100" as="geometry" />
        </mxCell>
        <mxCell id="PVO-l5OE1TBbHevKNnlY-10" value="" style="edgeStyle=orthogonalEdgeStyle;rounded=0;orthogonalLoop=1;jettySize=auto;html=1;" edge="1" parent="1" source="PVO-l5OE1TBbHevKNnlY-2" target="PVO-l5OE1TBbHevKNnlY-4">
          <mxGeometry relative="1" as="geometry" />
        </mxCell>
        <mxCell id="PVO-l5OE1TBbHevKNnlY-2" value="Polkadot" style="verticalLabelPosition=bottom;verticalAlign=top;html=1;shape=mxgraph.basic.polygon;polyCoords=[[0.25,0],[0.75,0],[1,0.25],[1,0.75],[0.75,1],[0.25,1],[0,0.75],[0,0.25]];polyline=0;fillColor=#f8cecc;strokeColor=#b85450;" vertex="1" parent="1">
          <mxGeometry x="620" y="350" width="100" height="100" as="geometry" />
        </mxCell>
        <mxCell id="PVO-l5OE1TBbHevKNnlY-19" value="" style="rounded=0;orthogonalLoop=1;jettySize=auto;html=1;exitX=0.5;exitY=0;exitDx=0;exitDy=0;" edge="1" parent="1" source="PVO-l5OE1TBbHevKNnlY-7" target="PVO-l5OE1TBbHevKNnlY-18">
          <mxGeometry relative="1" as="geometry" />
        </mxCell>
        <mxCell id="PVO-l5OE1TBbHevKNnlY-4" value="ChainBridge" style="shape=process;whiteSpace=wrap;html=1;backgroundOutline=1;fillColor=#e1d5e7;strokeColor=#9673a6;" vertex="1" parent="1">
          <mxGeometry x="230" y="350" width="380" height="100" as="geometry" />
        </mxCell>
        <mxCell id="PVO-l5OE1TBbHevKNnlY-5" value="listener" style="text;html=1;strokeColor=none;fillColor=none;align=center;verticalAlign=middle;whiteSpace=wrap;rounded=0;" vertex="1" parent="1">
          <mxGeometry x="230" y="430" width="40" height="20" as="geometry" />
        </mxCell>
        <mxCell id="PVO-l5OE1TBbHevKNnlY-6" value="listener" style="text;html=1;strokeColor=none;fillColor=none;align=center;verticalAlign=middle;whiteSpace=wrap;rounded=0;" vertex="1" parent="1">
          <mxGeometry x="570" y="430" width="40" height="20" as="geometry" />
        </mxCell>
        <mxCell id="PVO-l5OE1TBbHevKNnlY-7" value="writer" style="text;html=1;strokeColor=none;fillColor=none;align=center;verticalAlign=middle;whiteSpace=wrap;rounded=0;" vertex="1" parent="1">
          <mxGeometry x="230" y="350" width="40" height="20" as="geometry" />
        </mxCell>
        <mxCell id="PVO-l5OE1TBbHevKNnlY-8" value="writer" style="text;html=1;strokeColor=none;fillColor=none;align=center;verticalAlign=middle;whiteSpace=wrap;rounded=0;" vertex="1" parent="1">
          <mxGeometry x="570" y="350" width="40" height="20" as="geometry" />
        </mxCell>
        <mxCell id="PVO-l5OE1TBbHevKNnlY-18" value="contract" style="ellipse;shape=cloud;whiteSpace=wrap;html=1;strokeColor=#9673a6;fillColor=#e1d5e7;" vertex="1" parent="1">
          <mxGeometry x="190" y="180" width="120" height="80" as="geometry" />
        </mxCell>
        <mxCell id="PVO-l5OE1TBbHevKNnlY-21" value="contract" style="ellipse;shape=cloud;whiteSpace=wrap;html=1;strokeColor=#9673a6;fillColor=#e1d5e7;" vertex="1" parent="1">
          <mxGeometry x="530" y="180" width="120" height="80" as="geometry" />
        </mxCell>
        <mxCell id="PVO-l5OE1TBbHevKNnlY-22" value="" style="rounded=0;orthogonalLoop=1;jettySize=auto;html=1;entryX=0.492;entryY=0.95;entryDx=0;entryDy=0;entryPerimeter=0;" edge="1" parent="1" target="PVO-l5OE1TBbHevKNnlY-21">
          <mxGeometry relative="1" as="geometry">
            <mxPoint x="589" y="350" as="sourcePoint" />
            <mxPoint x="589.5" y="260" as="targetPoint" />
          </mxGeometry>
        </mxCell>
        <mxCell id="PVO-l5OE1TBbHevKNnlY-54" style="edgeStyle=none;rounded=0;orthogonalLoop=1;jettySize=auto;html=1;exitX=0.5;exitY=0;exitDx=0;exitDy=0;exitPerimeter=0;entryX=0.5;entryY=1;entryDx=0;entryDy=0;entryPerimeter=0;" edge="1" parent="1" source="PVO-l5OE1TBbHevKNnlY-23" target="PVO-l5OE1TBbHevKNnlY-48">
          <mxGeometry relative="1" as="geometry">
            <mxPoint x="250" as="targetPoint" />
          </mxGeometry>
        </mxCell>
        <mxCell id="PVO-l5OE1TBbHevKNnlY-23" value="Bob" style="shape=umlActor;verticalLabelPosition=bottom;verticalAlign=top;html=1;outlineConnect=0;fillColor=#dae8fc;strokeColor=#6c8ebf;" vertex="1" parent="1">
          <mxGeometry x="250" y="40" width="30" height="60" as="geometry" />
        </mxCell>
        <mxCell id="PVO-l5OE1TBbHevKNnlY-25" value="" style="endArrow=classic;html=1;entryX=0.5;entryY=0.5;entryDx=0;entryDy=0;entryPerimeter=0;exitX=0.625;exitY=0.2;exitDx=0;exitDy=0;exitPerimeter=0;" edge="1" parent="1" source="PVO-l5OE1TBbHevKNnlY-18" target="PVO-l5OE1TBbHevKNnlY-23">
          <mxGeometry width="50" height="50" relative="1" as="geometry">
            <mxPoint x="370" y="340" as="sourcePoint" />
            <mxPoint x="420" y="290" as="targetPoint" />
          </mxGeometry>
        </mxCell>
        <mxCell id="PVO-l5OE1TBbHevKNnlY-55" style="edgeStyle=none;rounded=0;orthogonalLoop=1;jettySize=auto;html=1;exitX=0.5;exitY=0;exitDx=0;exitDy=0;exitPerimeter=0;entryX=0.5;entryY=1;entryDx=0;entryDy=0;entryPerimeter=0;" edge="1" parent="1" source="PVO-l5OE1TBbHevKNnlY-27" target="PVO-l5OE1TBbHevKNnlY-48">
          <mxGeometry relative="1" as="geometry" />
        </mxCell>
        <mxCell id="PVO-l5OE1TBbHevKNnlY-27" value="Charlie" style="shape=umlActor;verticalLabelPosition=bottom;verticalAlign=top;html=1;outlineConnect=0;fillColor=#dae8fc;strokeColor=#6c8ebf;" vertex="1" parent="1">
          <mxGeometry x="383" y="60" width="30" height="60" as="geometry" />
        </mxCell>
        <mxCell id="PVO-l5OE1TBbHevKNnlY-28" value="" style="endArrow=classic;html=1;entryX=0.5;entryY=0.5;entryDx=0;entryDy=0;entryPerimeter=0;exitX=0.88;exitY=0.25;exitDx=0;exitDy=0;exitPerimeter=0;" edge="1" parent="1" target="PVO-l5OE1TBbHevKNnlY-27" source="PVO-l5OE1TBbHevKNnlY-18">
          <mxGeometry width="50" height="50" relative="1" as="geometry">
            <mxPoint x="320" y="226" as="sourcePoint" />
            <mxPoint x="475" y="320" as="targetPoint" />
          </mxGeometry>
        </mxCell>
        <mxCell id="PVO-l5OE1TBbHevKNnlY-53" style="edgeStyle=none;rounded=0;orthogonalLoop=1;jettySize=auto;html=1;exitX=0.5;exitY=0;exitDx=0;exitDy=0;exitPerimeter=0;entryX=0.5;entryY=1;entryDx=0;entryDy=0;entryPerimeter=0;" edge="1" parent="1" source="PVO-l5OE1TBbHevKNnlY-29" target="PVO-l5OE1TBbHevKNnlY-48">
          <mxGeometry relative="1" as="geometry" />
        </mxCell>
        <mxCell id="PVO-l5OE1TBbHevKNnlY-29" value="Alice" style="shape=umlActor;verticalLabelPosition=bottom;verticalAlign=top;html=1;outlineConnect=0;fillColor=#dae8fc;strokeColor=#6c8ebf;" vertex="1" parent="1">
          <mxGeometry x="130" y="60" width="30" height="60" as="geometry" />
        </mxCell>
        <mxCell id="PVO-l5OE1TBbHevKNnlY-30" value="" style="endArrow=classic;html=1;entryX=0.5;entryY=0.5;entryDx=0;entryDy=0;entryPerimeter=0;exitX=0.25;exitY=0.25;exitDx=0;exitDy=0;exitPerimeter=0;" edge="1" parent="1" target="PVO-l5OE1TBbHevKNnlY-29" source="PVO-l5OE1TBbHevKNnlY-18">
          <mxGeometry width="50" height="50" relative="1" as="geometry">
            <mxPoint x="145" y="180" as="sourcePoint" />
            <mxPoint x="300" y="274" as="targetPoint" />
          </mxGeometry>
        </mxCell>
        <mxCell id="PVO-l5OE1TBbHevKNnlY-66" style="edgeStyle=none;rounded=0;orthogonalLoop=1;jettySize=auto;html=1;exitX=0.5;exitY=0;exitDx=0;exitDy=0;exitPerimeter=0;" edge="1" parent="1" source="PVO-l5OE1TBbHevKNnlY-38">
          <mxGeometry relative="1" as="geometry">
            <mxPoint x="604.9411764705883" as="targetPoint" />
          </mxGeometry>
        </mxCell>
        <mxCell id="PVO-l5OE1TBbHevKNnlY-38" value="Bob" style="shape=umlActor;verticalLabelPosition=bottom;verticalAlign=top;html=1;outlineConnect=0;fillColor=#dae8fc;strokeColor=#6c8ebf;" vertex="1" parent="1">
          <mxGeometry x="590" y="40" width="30" height="60" as="geometry" />
        </mxCell>
        <mxCell id="PVO-l5OE1TBbHevKNnlY-67" style="edgeStyle=none;rounded=0;orthogonalLoop=1;jettySize=auto;html=1;exitX=0.5;exitY=0;exitDx=0;exitDy=0;exitPerimeter=0;entryX=0.5;entryY=1;entryDx=0;entryDy=0;entryPerimeter=0;" edge="1" parent="1" source="PVO-l5OE1TBbHevKNnlY-39" target="PVO-l5OE1TBbHevKNnlY-64">
          <mxGeometry relative="1" as="geometry" />
        </mxCell>
        <mxCell id="PVO-l5OE1TBbHevKNnlY-39" value="Charlie" style="shape=umlActor;verticalLabelPosition=bottom;verticalAlign=top;html=1;outlineConnect=0;fillColor=#dae8fc;strokeColor=#6c8ebf;" vertex="1" parent="1">
          <mxGeometry x="720" y="60" width="30" height="60" as="geometry" />
        </mxCell>
        <mxCell id="PVO-l5OE1TBbHevKNnlY-65" style="edgeStyle=none;rounded=0;orthogonalLoop=1;jettySize=auto;html=1;exitX=0.5;exitY=0;exitDx=0;exitDy=0;exitPerimeter=0;entryX=0.5;entryY=1;entryDx=0;entryDy=0;entryPerimeter=0;" edge="1" parent="1" source="PVO-l5OE1TBbHevKNnlY-40" target="PVO-l5OE1TBbHevKNnlY-64">
          <mxGeometry relative="1" as="geometry" />
        </mxCell>
        <mxCell id="PVO-l5OE1TBbHevKNnlY-40" value="Alice" style="shape=umlActor;verticalLabelPosition=bottom;verticalAlign=top;html=1;outlineConnect=0;fillColor=#dae8fc;strokeColor=#6c8ebf;" vertex="1" parent="1">
          <mxGeometry x="480" y="60" width="30" height="60" as="geometry" />
        </mxCell>
        <mxCell id="PVO-l5OE1TBbHevKNnlY-41" value="" style="endArrow=classic;html=1;exitX=0.25;exitY=0.25;exitDx=0;exitDy=0;exitPerimeter=0;entryX=0.5;entryY=0.5;entryDx=0;entryDy=0;entryPerimeter=0;" edge="1" parent="1" source="PVO-l5OE1TBbHevKNnlY-21" target="PVO-l5OE1TBbHevKNnlY-40">
          <mxGeometry width="50" height="50" relative="1" as="geometry">
            <mxPoint x="583" y="180" as="sourcePoint" />
            <mxPoint x="490" y="82" as="targetPoint" />
          </mxGeometry>
        </mxCell>
        <mxCell id="PVO-l5OE1TBbHevKNnlY-42" value="" style="endArrow=classic;html=1;entryX=0.5;entryY=0.5;entryDx=0;entryDy=0;entryPerimeter=0;exitX=0.625;exitY=0.2;exitDx=0;exitDy=0;exitPerimeter=0;" edge="1" parent="1" source="PVO-l5OE1TBbHevKNnlY-21" target="PVO-l5OE1TBbHevKNnlY-38">
          <mxGeometry width="50" height="50" relative="1" as="geometry">
            <mxPoint x="685" y="170" as="sourcePoint" />
            <mxPoint x="620" y="40" as="targetPoint" />
          </mxGeometry>
        </mxCell>
        <mxCell id="PVO-l5OE1TBbHevKNnlY-45" value="" style="endArrow=classic;html=1;exitX=0.875;exitY=0.5;exitDx=0;exitDy=0;exitPerimeter=0;entryX=0.5;entryY=0.5;entryDx=0;entryDy=0;entryPerimeter=0;" edge="1" parent="1" source="PVO-l5OE1TBbHevKNnlY-21" target="PVO-l5OE1TBbHevKNnlY-39">
          <mxGeometry width="50" height="50" relative="1" as="geometry">
            <mxPoint x="660" y="180" as="sourcePoint" />
            <mxPoint x="710" y="130" as="targetPoint" />
          </mxGeometry>
        </mxCell>
        <mxCell id="PVO-l5OE1TBbHevKNnlY-46" value="" style="rhombus;whiteSpace=wrap;html=1;strokeWidth=2;fillWeight=-1;hachureGap=8;fillStyle=cross-hatch;fillColor=#006600;sketch=1;" vertex="1" parent="1">
          <mxGeometry x="205" y="-180" width="120" height="90" as="geometry" />
        </mxCell>
        <mxCell id="PVO-l5OE1TBbHevKNnlY-49" value="" style="edgeStyle=none;rounded=0;orthogonalLoop=1;jettySize=auto;html=1;" edge="1" parent="1" source="PVO-l5OE1TBbHevKNnlY-48" target="PVO-l5OE1TBbHevKNnlY-46">
          <mxGeometry relative="1" as="geometry" />
        </mxCell>
        <mxCell id="PVO-l5OE1TBbHevKNnlY-48" value="2/3" style="strokeWidth=2;html=1;shape=mxgraph.flowchart.decision;whiteSpace=wrap;" vertex="1" parent="1">
          <mxGeometry x="250" y="-40" width="30" height="40" as="geometry" />
        </mxCell>
        <mxCell id="PVO-l5OE1TBbHevKNnlY-63" value="" style="rhombus;whiteSpace=wrap;html=1;strokeWidth=2;fillWeight=-1;hachureGap=8;fillStyle=cross-hatch;fillColor=#006600;sketch=1;" vertex="1" parent="1">
          <mxGeometry x="545" y="-180" width="120" height="90" as="geometry" />
        </mxCell>
        <mxCell id="PVO-l5OE1TBbHevKNnlY-68" value="" style="edgeStyle=none;rounded=0;orthogonalLoop=1;jettySize=auto;html=1;" edge="1" parent="1" source="PVO-l5OE1TBbHevKNnlY-64" target="PVO-l5OE1TBbHevKNnlY-63">
          <mxGeometry relative="1" as="geometry" />
        </mxCell>
        <mxCell id="PVO-l5OE1TBbHevKNnlY-64" value="2/3" style="strokeWidth=2;html=1;shape=mxgraph.flowchart.decision;whiteSpace=wrap;" vertex="1" parent="1">
          <mxGeometry x="590" y="-40" width="30" height="40" as="geometry" />
        </mxCell>
      </root>
    </mxGraphModel>
  </diagram>
</mxfile>
